<?xml version="1.0" standalone="no"?>
<!DOCTYPE svg PUBLIC "-//W3C//DTD SVG 20010904//EN"
 "http://www.w3.org/TR/2001/REC-SVG-20010904/DTD/svg10.dtd">
<svg version="1.0" xmlns="http://www.w3.org/2000/svg"
 width="486.000000pt" height="73.000000pt" viewBox="0 0 486.000000 73.000000"
 preserveAspectRatio="xMidYMid meet">

<g transform="translate(0.000000,73.000000) scale(0.100000,-0.100000)"
fill="#000000" stroke="none">
<path d="M4470 650 l0 -60 35 0 35 0 0 60 0 60 -35 0 -35 0 0 -60z"/>
<path d="M4680 630 c-13 -27 -21 -52 -18 -55 2 -3 18 -7 34 -11 27 -5 31 -2
51 40 l23 46 -30 15 c-16 8 -31 15 -33 15 -2 0 -14 -22 -27 -50z"/>
<path d="M4257 639 l-27 -21 21 -29 c18 -26 25 -29 53 -24 47 10 48 17 13 57
l-32 38 -28 -21z"/>
<path d="M3440 630 c-23 -43 17 -83 60 -60 22 12 27 49 8 68 -19 19 -56 14
-68 -8z"/>
<path d="M2670 390 l0 -250 35 0 35 0 0 118 c0 132 15 180 61 196 38 13 78 0
89 -30 6 -14 10 -84 10 -155 l0 -129 35 0 35 0 0 145 c0 210 -22 246 -147 237
-12 -1 -35 -14 -52 -28 l-31 -26 0 86 0 86 -35 0 -35 0 0 -250z"/>
<path d="M30 385 l0 -245 30 0 30 0 0 210 c0 116 3 210 8 210 4 0 22 -51 40
-113 18 -61 47 -156 63 -209 l30 -98 58 0 58 0 58 198 c32 108 61 204 66 212
5 8 9 -79 9 -197 l0 -213 40 0 40 0 0 245 0 245 -67 0 -68 0 -64 -210 c-35
-116 -67 -212 -70 -215 -4 -2 -36 93 -71 211 l-63 214 -64 0 -63 0 0 -245z"/>
<path d="M980 624 c0 -3 21 -114 46 -245 l47 -239 63 0 c35 0 64 3 64 6 0 13
91 418 95 422 5 6 17 -41 61 -245 l39 -183 62 0 c57 0 63 2 68 23 10 43 85
442 85 454 0 8 -13 13 -34 13 l-33 0 -16 -87 c-9 -49 -27 -145 -39 -215 -12
-71 -25 -128 -28 -128 -4 0 -19 57 -34 128 -15 70 -37 167 -48 215 l-20 88
-61 -3 -61 -3 -46 -212 c-25 -117 -48 -213 -51 -213 -3 0 -23 96 -45 213 l-40
212 -37 3 c-20 2 -37 0 -37 -4z"/>
<path d="M3070 385 l0 -246 153 3 152 3 3 28 3 27 -115 0 -116 0 0 215 0 215
-40 0 -40 0 0 -245z"/>
<path d="M2110 566 c0 -41 -2 -45 -27 -48 -22 -2 -29 -9 -31 -30 -3 -24 0 -28
21 -28 l25 0 4 -132 c6 -163 15 -188 70 -188 42 0 44 3 23 40 -10 18 -14 61
-15 153 l0 127 30 0 c27 0 30 3 30 30 0 28 -3 30 -35 30 -35 0 -35 0 -35 45 0
43 -1 45 -30 45 -29 0 -30 -2 -30 -44z"/>
<path d="M3970 566 c0 -41 -2 -45 -27 -48 -22 -2 -29 -9 -31 -30 -3 -24 0 -28
21 -28 l25 0 4 -132 c6 -163 15 -188 70 -188 42 0 44 3 23 40 -10 18 -14 61
-15 153 l0 127 30 0 c27 0 30 3 30 30 0 28 -3 30 -35 30 -35 0 -35 0 -35 45 0
43 -1 45 -30 45 -29 0 -30 -2 -30 -44z"/>
<path d="M1772 520 c-74 -17 -112 -82 -112 -190 0 -112 33 -172 103 -191 53
-14 104 -4 133 28 l24 26 0 -27 c0 -23 4 -26 35 -26 l35 0 -2 188 -3 187 -30
0 c-24 0 -31 -5 -33 -23 l-3 -23 -30 26 c-17 14 -37 25 -44 25 -7 0 -19 2 -27
4 -7 2 -28 0 -46 -4z m105 -82 c12 -13 26 -42 32 -64 28 -106 -40 -207 -117
-175 -69 29 -84 178 -25 243 24 26 84 24 110 -4z"/>
<path d="M2403 520 c-82 -19 -122 -82 -123 -190 0 -112 52 -185 138 -197 51
-7 120 17 143 50 20 28 39 83 32 91 -4 3 -19 6 -35 6 -22 0 -31 -7 -42 -35
-28 -65 -96 -71 -140 -12 -26 35 -29 136 -6 182 34 66 124 64 148 -4 10 -27
16 -31 47 -31 33 0 36 2 30 23 -28 92 -103 138 -192 117z"/>
<path d="M3705 523 c-47 -10 -77 -28 -90 -54 -34 -64 -9 -115 73 -152 33 -15
64 -27 69 -27 5 0 20 -11 32 -24 52 -55 -40 -105 -103 -55 -14 11 -26 27 -26
35 0 10 -12 14 -39 14 l-40 0 9 -32 c20 -67 92 -107 172 -94 59 10 86 26 104
64 14 29 14 41 5 74 -11 36 -19 43 -79 70 -108 48 -111 50 -118 70 -7 24 22
58 50 58 27 0 66 -27 66 -46 0 -9 11 -14 35 -14 40 0 44 13 20 59 -19 37 -90
64 -140 54z"/>
<path d="M620 511 c0 -5 30 -85 66 -179 l65 -170 -33 -64 c-18 -34 -34 -66
-36 -70 -2 -5 14 -8 36 -8 l39 0 35 78 c43 94 158 394 158 411 0 8 -12 11 -32
9 -31 -3 -33 -6 -75 -118 -23 -63 -43 -121 -43 -127 0 -29 -16 -10 -34 40 -10
28 -32 87 -48 130 -29 75 -31 77 -64 77 -19 0 -34 -4 -34 -9z"/>
<path d="M3440 330 l0 -190 35 0 35 0 0 190 0 190 -35 0 -35 0 0 -190z"/>
<path d="M4414 490 c-99 -15 -198 -76 -250 -155 -16 -24 -15 -27 10 -64 83
-119 266 -189 423 -161 109 19 174 64 230 158 l25 42 -27 35 c-66 87 -137 128
-250 145 -78 11 -88 11 -161 0z m-32 -114 c-8 -92 61 -166 154 -166 81 0 144
55 160 137 l6 33 26 -20 c56 -44 56 -53 7 -108 -61 -67 -115 -86 -234 -80
-100 5 -173 33 -240 93 l-42 38 38 40 c31 32 101 76 123 77 3 0 4 -20 2 -44z
m190 27 c26 -23 23 -59 -7 -79 -23 -15 -27 -15 -50 0 -29 19 -33 56 -9 80 20
21 43 20 66 -1z"/>
</g>
</svg>
